<mxfile host="app.diagrams.net" modified="2024-01-03T10:45:41.593Z" agent="Mozilla/5.0 (Macintosh; Intel Mac OS X 10_15_7) AppleWebKit/537.36 (KHTML, like Gecko) Chrome/120.0.0.0 Safari/537.36" etag="6DVfBUkgVj5zNxFJ563Y" version="22.1.16" type="github">
  <diagram name="Page-1" id="aglCG6y4qYpq39_KEeoC">
    <mxGraphModel dx="1434" dy="761" grid="1" gridSize="10" guides="1" tooltips="1" connect="1" arrows="1" fold="1" page="1" pageScale="1" pageWidth="827" pageHeight="1169" math="0" shadow="0">
      <root>
        <mxCell id="0" />
        <mxCell id="1" parent="0" />
        <mxCell id="IQLyXkSy8vxl-1mdiMzb-2" value="Predictive segments streaming on AWS" style="text;html=1;strokeColor=none;fillColor=none;align=center;verticalAlign=middle;whiteSpace=wrap;rounded=0;" vertex="1" parent="1">
          <mxGeometry x="60" y="130" width="230" height="40" as="geometry" />
        </mxCell>
        <mxCell id="IQLyXkSy8vxl-1mdiMzb-3" value="A Replacement of Triton on AWS" style="text;html=1;strokeColor=none;fillColor=none;align=center;verticalAlign=middle;whiteSpace=wrap;rounded=0;" vertex="1" parent="1">
          <mxGeometry x="470" y="200" width="230" height="40" as="geometry" />
        </mxCell>
        <mxCell id="IQLyXkSy8vxl-1mdiMzb-5" style="edgeStyle=orthogonalEdgeStyle;rounded=0;orthogonalLoop=1;jettySize=auto;html=1;" edge="1" parent="1" source="IQLyXkSy8vxl-1mdiMzb-4" target="IQLyXkSy8vxl-1mdiMzb-3">
          <mxGeometry relative="1" as="geometry" />
        </mxCell>
        <mxCell id="IQLyXkSy8vxl-1mdiMzb-4" value="PS streaming" style="text;html=1;strokeColor=none;fillColor=none;align=center;verticalAlign=middle;whiteSpace=wrap;rounded=0;" vertex="1" parent="1">
          <mxGeometry x="330" y="200" width="90" height="40" as="geometry" />
        </mxCell>
        <mxCell id="IQLyXkSy8vxl-1mdiMzb-18" style="edgeStyle=orthogonalEdgeStyle;rounded=0;orthogonalLoop=1;jettySize=auto;html=1;" edge="1" parent="1" source="IQLyXkSy8vxl-1mdiMzb-6" target="IQLyXkSy8vxl-1mdiMzb-7">
          <mxGeometry relative="1" as="geometry" />
        </mxCell>
        <mxCell id="IQLyXkSy8vxl-1mdiMzb-6" value="household ip" style="text;html=1;strokeColor=none;fillColor=none;align=center;verticalAlign=middle;whiteSpace=wrap;rounded=0;" vertex="1" parent="1">
          <mxGeometry x="140" y="440" width="100" height="30" as="geometry" />
        </mxCell>
        <mxCell id="IQLyXkSy8vxl-1mdiMzb-7" value="household id, household id, household id" style="text;html=1;strokeColor=none;fillColor=none;align=center;verticalAlign=middle;whiteSpace=wrap;rounded=0;" vertex="1" parent="1">
          <mxGeometry x="270" y="440" width="230" height="30" as="geometry" />
        </mxCell>
        <mxCell id="IQLyXkSy8vxl-1mdiMzb-19" style="edgeStyle=orthogonalEdgeStyle;rounded=0;orthogonalLoop=1;jettySize=auto;html=1;" edge="1" parent="1" source="IQLyXkSy8vxl-1mdiMzb-8">
          <mxGeometry relative="1" as="geometry">
            <mxPoint x="270" y="495" as="targetPoint" />
          </mxGeometry>
        </mxCell>
        <mxCell id="IQLyXkSy8vxl-1mdiMzb-8" value="household ip" style="text;html=1;strokeColor=none;fillColor=none;align=center;verticalAlign=middle;whiteSpace=wrap;rounded=0;" vertex="1" parent="1">
          <mxGeometry x="140" y="480" width="100" height="30" as="geometry" />
        </mxCell>
        <mxCell id="IQLyXkSy8vxl-1mdiMzb-20" style="edgeStyle=orthogonalEdgeStyle;rounded=0;orthogonalLoop=1;jettySize=auto;html=1;" edge="1" parent="1" source="IQLyXkSy8vxl-1mdiMzb-9">
          <mxGeometry relative="1" as="geometry">
            <mxPoint x="270" y="535" as="targetPoint" />
          </mxGeometry>
        </mxCell>
        <mxCell id="IQLyXkSy8vxl-1mdiMzb-9" value="household ip" style="text;html=1;strokeColor=none;fillColor=none;align=center;verticalAlign=middle;whiteSpace=wrap;rounded=0;" vertex="1" parent="1">
          <mxGeometry x="150" y="520" width="90" height="30" as="geometry" />
        </mxCell>
        <mxCell id="IQLyXkSy8vxl-1mdiMzb-21" value="household id, household id, household id" style="text;html=1;strokeColor=none;fillColor=none;align=center;verticalAlign=middle;whiteSpace=wrap;rounded=0;" vertex="1" parent="1">
          <mxGeometry x="270" y="480" width="230" height="30" as="geometry" />
        </mxCell>
        <mxCell id="IQLyXkSy8vxl-1mdiMzb-23" value="household id, household id, household id" style="text;html=1;strokeColor=none;fillColor=none;align=center;verticalAlign=middle;whiteSpace=wrap;rounded=0;" vertex="1" parent="1">
          <mxGeometry x="270" y="520" width="230" height="30" as="geometry" />
        </mxCell>
        <mxCell id="IQLyXkSy8vxl-1mdiMzb-26" style="edgeStyle=orthogonalEdgeStyle;rounded=0;orthogonalLoop=1;jettySize=auto;html=1;" edge="1" parent="1" source="IQLyXkSy8vxl-1mdiMzb-24" target="IQLyXkSy8vxl-1mdiMzb-25">
          <mxGeometry relative="1" as="geometry" />
        </mxCell>
        <mxCell id="IQLyXkSy8vxl-1mdiMzb-24" value="household id, household id, household id" style="text;html=1;strokeColor=none;fillColor=none;align=center;verticalAlign=middle;whiteSpace=wrap;rounded=0;" vertex="1" parent="1">
          <mxGeometry x="260" y="630" width="230" height="30" as="geometry" />
        </mxCell>
        <mxCell id="IQLyXkSy8vxl-1mdiMzb-25" value="Aerospike" style="rounded=0;whiteSpace=wrap;html=1;" vertex="1" parent="1">
          <mxGeometry x="325" y="690" width="100" height="40" as="geometry" />
        </mxCell>
      </root>
    </mxGraphModel>
  </diagram>
</mxfile>
